<svg xmlns="http://www.w3.org/2000/svg" xmlns:xlink="http://www.w3.org/1999/xlink" aria-hidden="true" role="img" class="iconify iconify--logos" width="35.93" height="32" preserveAspectRatio="xMidYMid meet" viewBox="0 0 64 96">

<rect x="0" y="0" width="64" height="96" fill="white"/>
<rect x="0" y="92" width="64" height="4" ></rect><rect x="52" y="0" width="4" height="96" ></rect><rect x="10" y="0" width="42" height="4" ></rect><rect x="10" y="0" width="1" height="20" ></rect><circle r="8" fill="none" stroke="black" cx="10.5" cy="28"></circle><rect x="10" y="36" width="1" height="20" ></rect><rect x="10" y="56" width="1" height="13.33" transform="rotate(-45 10 56)" ></rect><rect x="10" y="56" width="1" height="13.33" transform="rotate(45 10 56)" ></rect><rect x="9" y="45" width="1" height="10" transform="rotate(120 10 45)" ></rect><rect x="9.8" y="45" width="1" height="10" transform="rotate(-120 10 45)" ></rect><g >
    <line x1="7" y1="25" x2="9" y2="27" stroke="red" stroke-width="0.5"></line>
    <line x1="7" y1="27" x2="9" y2="25" stroke="red" stroke-width="0.5"></line>

    <line x1="12" y1="25" x2="14" y2="27" stroke="red" stroke-width="0.5"></line>
    <line x1="12" y1="27" x2="14" y2="25" stroke="red" stroke-width="0.5"></line>

    <line x1="9" y1="31" x2="12" y2="33" stroke="red" stroke-width="0.5"></line>
    <line x1="9" y1="33" x2="12" y2="31" stroke="red" stroke-width="0.5"></line>
  </g></svg>